<svg width="128" height="128" viewBox="0 0 128 128" xmlns="http://www.w3.org/2000/svg">
  <!-- Background -->
  <rect width="128" height="128" rx="20" fill="#1e1e2e"/>

  <!-- Document card -->
  <rect x="8" y="8" width="90" height="112" rx="6" fill="#252538"/>

  <!-- H1 – full gold -->
  <rect x="14" y="14" width="78" height="6" rx="2" fill="#FFD700"/>
  <!-- text lines -->
  <rect x="14" y="24" width="65" height="2" rx="1" fill="#45456a"/>
  <rect x="14" y="29" width="72" height="2" rx="1" fill="#45456a"/>
  <rect x="14" y="34" width="55" height="2" rx="1" fill="#45456a"/>

  <!-- H2 – 70% gold -->
  <rect x="14" y="42" width="72" height="5" rx="2" fill="#FFD700B2"/>
  <!-- text lines -->
  <rect x="14" y="51" width="60" height="2" rx="1" fill="#45456a"/>
  <rect x="14" y="56" width="70" height="2" rx="1" fill="#45456a"/>

  <!-- H3 – 40% gold -->
  <rect x="14" y="64" width="58" height="4" rx="2" fill="#FFD70066"/>
  <!-- text lines -->
  <rect x="14" y="72" width="68" height="2" rx="1" fill="#45456a"/>
  <rect x="14" y="77" width="50" height="2" rx="1" fill="#45456a"/>

  <!-- H2 – 70% gold -->
  <rect x="14" y="85" width="72" height="5" rx="2" fill="#FFD700B2"/>
  <!-- text lines -->
  <rect x="14" y="94" width="62" height="2" rx="1" fill="#45456a"/>
  <rect x="14" y="99" width="75" height="2" rx="1" fill="#45456a"/>
  <rect x="14" y="104" width="45" height="2" rx="1" fill="#45456a"/>

  <!-- H3 – 40% gold -->
  <rect x="14" y="110" width="58" height="4" rx="2" fill="#FFD70066"/>
  <!-- text line -->
  <rect x="14" y="118" width="60" height="2" rx="1" fill="#45456a"/>

  <!-- Minimap column -->
  <rect x="104" y="8" width="16" height="112" rx="6" fill="#191926"/>

  <!-- Minimap markers (same Y, same colors as document headers) -->
  <rect x="106" y="14" width="12" height="6" rx="1" fill="#FFD700"/>
  <rect x="106" y="42" width="12" height="5" rx="1" fill="#FFD700B2"/>
  <rect x="106" y="64" width="12" height="4" rx="1" fill="#FFD70066"/>
  <rect x="106" y="85" width="12" height="5" rx="1" fill="#FFD700B2"/>
  <rect x="106" y="110" width="12" height="4" rx="1" fill="#FFD70066"/>
</svg>
